<?xml version="1.0" encoding="UTF-8" standalone="no"?>
<svg
   viewBox="0 0 329.19683 223.37006"
   width="329.19684"
   height="223.37006"
   version="1.1"
   id="svg7"
   xmlns="http://www.w3.org/2000/svg"
   xmlns:svg="http://www.w3.org/2000/svg">
  <desc
     id="desc1">Perma Base.dxf - scale = 1.000000, origin = (0.000000, 0.000000), method = manual</desc>
  <defs
     id="defs4">
    <marker
       id="DistanceX"
       orient="auto"
       refX="0"
       refY="0"
       style="overflow:visible">
      <path
         d="M 3,-3 -3,3 M 0,-5 V 5"
         style="stroke:#000000;stroke-width:0.5"
         id="path1" />
    </marker>
    <pattern
       id="Hatch"
       patternUnits="userSpaceOnUse"
       width="8"
       height="8"
       x="0"
       y="0">
      <path
         d="M8 4 l-4,4"
         stroke="#000000"
         stroke-width="0.25"
         linecap="square"
         id="path2" />
      <path
         d="M6 2 l-4,4"
         stroke="#000000"
         stroke-width="0.25"
         linecap="square"
         id="path3" />
      <path
         d="M4 0 l-4,4"
         stroke="#000000"
         stroke-width="0.25"
         linecap="square"
         id="path4" />
    </pattern>
    <symbol
       id="*MODEL_SPACE" />
    <symbol
       id="*PAPER_SPACE" />
  </defs>
  <g
     id="g7"
     transform="translate(-33.836884,-803.1502)">
    <g
       id="g8"
       style="stroke-width:0.377953;stroke-dasharray:none"
       transform="translate(198.43531,-207.68442)">
      <path
         d="m -153.07087,1011.0236 a 11.338583,11.338583 0 0 0 -11.33858,11.3386 v 200.315 a 11.338583,11.338583 0 0 0 11.33858,11.3385 h 306.14174 a 11.338583,11.338583 0 0 0 11.33858,-11.3385 v -200.315 a 11.338583,11.338583 0 0 0 -11.33858,-11.3386 z"
         style="fill:none;stroke:#000000;stroke-width:0.377953;stroke-dasharray:none"
         id="path5" />
      <path
         d="m -127.55906,1122.5197 a 6.6141735,6.6141735 0 0 0 -13.22834,0 6.6141735,6.6141735 0 0 0 13.22834,0 z"
         style="fill:none;stroke:#000000;stroke-width:0.377953;stroke-dasharray:none"
         id="path6" />
      <path
         d="m 140.7874,1122.5197 a 6.6141735,6.6141735 0 0 0 -13.22834,0 6.6141735,6.6141735 0 0 0 13.22834,0 z"
         style="fill:none;stroke:#000000;stroke-width:0.377953;stroke-dasharray:none"
         id="path7" />
    </g>
  </g>
</svg>
